<svg width="41" height="38" viewBox="0 0 41 38" fill="none" xmlns="http://www.w3.org/2000/svg">
<path d="M8.24973 35.3701L8.24975 35.3701L9.96128 25.3893C10.1225 24.452 9.8119 23.4957 9.13078 22.8314L9.13067 22.8313L1.87908 15.7629C1.48845 15.3819 1.3588 14.8562 1.52747 14.3376L1.05243 14.1831L1.52748 14.3376C1.69598 13.8195 2.10968 13.4709 2.64917 13.3927L2.64934 13.3927L12.671 11.9364C12.671 11.9364 12.671 11.9364 12.6711 11.9364C13.6126 11.7997 14.4261 11.2088 14.8471 10.3557C14.8471 10.3557 14.8471 10.3557 14.8471 10.3557L19.3286 1.27485L19.3287 1.27465C19.5698 0.78566 20.0291 0.5 20.5742 0.5C21.1193 0.5 21.5789 0.785749 21.8203 1.27483L22.2687 1.05356L21.8203 1.27484L26.3019 10.3557C26.3019 10.3557 26.3019 10.3557 26.3019 10.3557C26.7229 11.2089 27.5365 11.7998 28.4781 11.9364L38.4995 13.3926C38.4995 13.3926 38.4995 13.3927 38.4995 13.3927C39.0394 13.4712 39.4532 13.8202 39.6217 14.3387C39.79 14.8571 39.6603 15.3824 39.27 15.7628L39.27 15.7628L32.0183 22.8313L32.0182 22.8314C31.3371 23.4957 31.0265 24.4518 31.1877 25.3891C31.1877 25.3892 31.1877 25.3893 31.1877 25.3894L32.8992 35.37L32.8992 35.3701C32.9708 35.7871 32.8636 36.1809 32.6004 36.4932C32.332 36.8116 31.9273 36.9996 31.5293 36.9997C31.3101 36.9997 31.0937 36.9464 30.8825 36.8355C30.8824 36.8355 30.8824 36.8355 30.8824 36.8354L21.9193 32.1235L21.9192 32.1235C21.5058 31.9063 21.0415 31.7918 20.5745 31.7918C20.1075 31.7918 19.6431 31.9063 19.2298 32.1234L19.2297 32.1235L10.2664 36.8355L10.2664 36.8356C10.0551 36.9467 9.83865 37 9.6193 37C9.22154 37 8.81707 36.812 8.5487 36.4937C8.28536 36.1813 8.17813 35.7873 8.24973 35.3701Z" stroke="#F89925" stroke-opacity="0.5"/>
</svg>
